<svg width="64" height="64" viewBox="0 0 64 64" fill="none" xmlns="http://www.w3.org/2000/svg">
<path d="M15.9239 14.3912C15.6926 14.3912 15.4676 14.2975 15.3051 14.135C15.1414 13.9712 15.0476 13.7462 15.0476 13.5162C15.0476 13.4587 15.0539 13.4012 15.0651 13.345C15.0764 13.2887 15.0939 13.2337 15.1151 13.1812C15.1376 13.1287 15.1639 13.0775 15.1964 13.03C15.2276 12.9825 15.2639 12.9375 15.3051 12.8975C15.3451 12.8575 15.3901 12.82 15.4376 12.7887C15.4851 12.7575 15.5364 12.73 15.5889 12.7075C15.6414 12.6862 15.6964 12.67 15.7526 12.6587C15.8651 12.635 15.9814 12.635 16.0939 12.6587C16.1501 12.67 16.2051 12.6862 16.2576 12.7075C16.3101 12.73 16.3614 12.7575 16.4089 12.7887C16.4564 12.82 16.5014 12.8575 16.5414 12.8975C16.5826 12.9375 16.6189 12.9825 16.6501 13.03C16.6826 13.0775 16.7089 13.1287 16.7314 13.1812C16.7526 13.2337 16.7701 13.2887 16.7814 13.345C16.7926 13.4012 16.7976 13.4587 16.7976 13.5162C16.7976 13.7462 16.7051 13.9712 16.5414 14.135C16.5014 14.175 16.4564 14.2112 16.4089 14.2437C16.3614 14.275 16.3101 14.3025 16.2576 14.3237C16.2051 14.3462 16.1501 14.3625 16.0939 14.3737C16.0376 14.385 15.9801 14.3912 15.9239 14.3912Z" fill="#101624"/>
<path d="M55.6664 62.3125H29.1039C28.6201 62.3125 28.2289 61.9212 28.2289 61.4375V22.3662H15.9226C15.4389 22.3662 15.0476 21.975 15.0476 21.4912V17.4787C15.0476 16.995 15.4389 16.6037 15.9226 16.6037C16.4064 16.6037 16.7976 16.995 16.7976 17.4787V20.6162H29.1039C29.5876 20.6162 29.9789 21.0075 29.9789 21.4912V60.5625H54.7901V50.2525C54.7901 49.7687 55.1814 49.3775 55.6651 49.3775C56.1489 49.3775 56.5401 49.7687 56.5401 50.2525V61.4375C56.5414 61.9212 56.1489 62.3125 55.6664 62.3125Z" fill="#101624"/>
<path d="M55.6663 48.3725C55.6088 48.3725 55.5513 48.3663 55.495 48.355C55.4388 48.3438 55.3838 48.3275 55.3313 48.305C55.2788 48.2838 55.2275 48.2563 55.18 48.225C55.1325 48.1925 55.0875 48.1563 55.0475 48.1163C55.0063 48.0763 54.97 48.0313 54.9388 47.9825C54.9063 47.935 54.88 47.885 54.8575 47.8325C54.8363 47.7788 54.8188 47.7238 54.8075 47.6688C54.7963 47.6125 54.7913 47.555 54.7913 47.4975C54.7913 47.44 54.7963 47.3825 54.8075 47.3263C54.8188 47.27 54.8363 47.215 54.8575 47.1625C54.88 47.11 54.9063 47.0588 54.9388 47.0113C54.97 46.9638 55.0063 46.9188 55.0475 46.8788C55.0875 46.8375 55.1325 46.8013 55.18 46.77C55.2275 46.7388 55.2788 46.7113 55.3313 46.6888C55.3838 46.6675 55.4388 46.65 55.495 46.6388C55.6075 46.6163 55.7238 46.6163 55.8363 46.6388C55.8925 46.65 55.9475 46.6675 56 46.6888C56.0525 46.7113 56.1038 46.7388 56.1513 46.77C56.1988 46.8013 56.2438 46.8375 56.2838 46.8788C56.325 46.9188 56.3613 46.9638 56.3925 47.0113C56.425 47.0588 56.4513 47.11 56.4738 47.1625C56.495 47.215 56.5125 47.27 56.5238 47.3263C56.535 47.3825 56.54 47.44 56.54 47.4975C56.54 47.555 56.535 47.6125 56.5238 47.6688C56.5125 47.7238 56.495 47.7788 56.4738 47.8325C56.4513 47.885 56.425 47.935 56.3925 47.9825C56.3613 48.0313 56.325 48.0763 56.2838 48.1163C56.2438 48.1563 56.1988 48.1925 56.1513 48.225C56.1038 48.2563 56.0525 48.2838 56 48.305C55.9475 48.3275 55.8925 48.3438 55.8363 48.355C55.78 48.3663 55.7225 48.3725 55.6663 48.3725Z" fill="#101624"/>
<path d="M55.6664 45.0213C55.1826 45.0213 54.7914 44.63 54.7914 44.1463V3.4375H16.7976V10.785C16.7976 11.2688 16.4064 11.66 15.9226 11.66C15.4389 11.66 15.0476 11.2688 15.0476 10.785V2.5625C15.0476 2.07875 15.4389 1.6875 15.9226 1.6875H55.6651C56.1489 1.6875 56.5401 2.07875 56.5401 2.5625V44.1463C56.5414 44.63 56.1489 45.0213 55.6664 45.0213Z" fill="#101624"/>
<path d="M16.5013 32.8925H12.7988C12.3151 32.8925 11.9238 32.5013 11.9238 32.0175V28.315C11.9238 27.8313 12.3151 27.44 12.7988 27.44H16.5013C16.9851 27.44 17.3763 27.8313 17.3763 28.315V32.0175C17.3763 32.5013 16.9851 32.8925 16.5013 32.8925ZM13.6738 31.1425H15.6263V29.19H13.6738V31.1425Z" fill="#1D57A5"/>
<path d="M24.64 32.8925H20.9375C20.4538 32.8925 20.0625 32.5013 20.0625 32.0175V28.315C20.0625 27.8313 20.4538 27.44 20.9375 27.44H24.64C25.1237 27.44 25.515 27.8313 25.515 28.315V32.0175C25.515 32.5013 25.1225 32.8925 24.64 32.8925ZM21.8125 31.1425H23.765V29.19H21.8125V31.1425Z" fill="#1D57A5"/>
<path d="M16.5013 40.425H12.7988C12.3151 40.425 11.9238 40.0337 11.9238 39.55V35.8475C11.9238 35.3637 12.3151 34.9725 12.7988 34.9725H16.5013C16.9851 34.9725 17.3763 35.3637 17.3763 35.8475V39.55C17.3763 40.0325 16.9851 40.425 16.5013 40.425ZM13.6738 38.675H15.6263V36.7225H13.6738V38.675Z" fill="#1D57A5"/>
<path d="M24.64 40.425H20.9375C20.4538 40.425 20.0625 40.0337 20.0625 39.55V35.8475C20.0625 35.3637 20.4538 34.9725 20.9375 34.9725H24.64C25.1237 34.9725 25.515 35.3637 25.515 35.8475V39.55C25.515 40.0325 25.1225 40.425 24.64 40.425ZM21.8125 38.675H23.765V36.7225H21.8125V38.675Z" fill="#1D57A5"/>
<path d="M16.5013 47.9562H12.7988C12.3151 47.9562 11.9238 47.565 11.9238 47.0812V43.3787C11.9238 42.895 12.3151 42.5037 12.7988 42.5037H16.5013C16.9851 42.5037 17.3763 42.895 17.3763 43.3787V47.0812C17.3763 47.565 16.9851 47.9562 16.5013 47.9562ZM13.6738 46.2062H15.6263V44.2537H13.6738V46.2062Z" fill="#1D57A5"/>
<path d="M24.64 47.9562H20.9375C20.4538 47.9562 20.0625 47.565 20.0625 47.0812V43.3787C20.0625 42.895 20.4538 42.5037 20.9375 42.5037H24.64C25.1237 42.5037 25.515 42.895 25.515 43.3787V47.0812C25.515 47.565 25.1225 47.9562 24.64 47.9562ZM21.8125 46.2062H23.765V44.2537H21.8125V46.2062Z" fill="#1D57A5"/>
<path d="M16.5013 55.4888H12.7988C12.3151 55.4888 11.9238 55.0975 11.9238 54.6138V50.9113C11.9238 50.4275 12.3151 50.0363 12.7988 50.0363H16.5013C16.9851 50.0363 17.3763 50.4275 17.3763 50.9113V54.6138C17.3763 55.0963 16.9851 55.4888 16.5013 55.4888ZM13.6738 53.7388H15.6263V51.7863H13.6738V53.7388Z" fill="#1D57A5"/>
<path d="M24.64 55.4888H20.9375C20.4538 55.4888 20.0625 55.0975 20.0625 54.6138V50.9113C20.0625 50.4275 20.4538 50.0363 20.9375 50.0363H24.64C25.1237 50.0363 25.515 50.4275 25.515 50.9113V54.6138C25.515 55.0963 25.1225 55.4888 24.64 55.4888ZM21.8125 53.7388H23.765V51.7863H21.8125V53.7388Z" fill="#1D57A5"/>
<path d="M38.5137 41.0125H34.9387C34.455 41.0125 34.0637 40.6213 34.0637 40.1375V36.5625C34.0637 36.0788 34.455 35.6875 34.9387 35.6875H38.5137C38.9975 35.6875 39.3887 36.0788 39.3887 36.5625V40.1375C39.3887 40.6213 38.9962 41.0125 38.5137 41.0125ZM35.8137 39.2625H37.6387V37.4375H35.8137V39.2625Z" fill="#101624"/>
<path d="M38.5137 49.225H34.9387C34.455 49.225 34.0637 48.8338 34.0637 48.35V44.775C34.0637 44.2913 34.455 43.9 34.9387 43.9H38.5137C38.9975 43.9 39.3887 44.2913 39.3887 44.775V48.35C39.3887 48.8338 38.9962 49.225 38.5137 49.225ZM35.8137 47.475H37.6387V45.65H35.8137V47.475Z" fill="#101624"/>
<path d="M38.5137 57.4375H34.9387C34.455 57.4375 34.0637 57.0462 34.0637 56.5625V52.9875C34.0637 52.5037 34.455 52.1125 34.9387 52.1125H38.5137C38.9975 52.1125 39.3887 52.5037 39.3887 52.9875V56.5625C39.3887 57.045 38.9962 57.4375 38.5137 57.4375ZM35.8137 55.6875H37.6387V53.8625H35.8137V55.6875Z" fill="#101624"/>
<path d="M24.7313 10.6488H21.04C20.5563 10.6488 20.165 10.2575 20.165 9.77377V6.08252C20.165 5.59877 20.5563 5.20752 21.04 5.20752H24.7313C25.215 5.20752 25.6063 5.59877 25.6063 6.08252V9.77377C25.6063 10.2575 25.215 10.6488 24.7313 10.6488ZM21.915 8.89877H23.8563V6.95752H21.915V8.89877Z" fill="#1D57A5"/>
<path d="M33.515 10.6488H29.8237C29.34 10.6488 28.9487 10.2575 28.9487 9.77377V6.08252C28.9487 5.59877 29.34 5.20752 29.8237 5.20752H33.515C33.9987 5.20752 34.39 5.59877 34.39 6.08252V9.77377C34.39 10.2575 33.9987 10.6488 33.515 10.6488ZM30.6987 8.89877H32.64V6.95752H30.6987V8.89877Z" fill="#1D57A5"/>
<path d="M42.2975 10.6488H38.6062C38.1225 10.6488 37.7312 10.2575 37.7312 9.77377V6.08252C37.7312 5.59877 38.1225 5.20752 38.6062 5.20752H42.2975C42.7812 5.20752 43.1725 5.59877 43.1725 6.08252V9.77377C43.1725 10.2575 42.7812 10.6488 42.2975 10.6488ZM39.4812 8.89877H41.4225V6.95752H39.4812V8.89877Z" fill="#1D57A5"/>
<path d="M51.66 10.6488H47.9688C47.485 10.6488 47.0938 10.2575 47.0938 9.77377V6.08252C47.0938 5.59877 47.485 5.20752 47.9688 5.20752H51.66C52.1437 5.20752 52.535 5.59877 52.535 6.08252V9.77377C52.535 10.2575 52.1425 10.6488 51.66 10.6488ZM48.8438 8.89877H50.785V6.95752H48.8438V8.89877Z" fill="#1D57A5"/>
<path d="M24.7313 18.3538H21.04C20.5563 18.3538 20.165 17.9625 20.165 17.4788V13.7875C20.165 13.3038 20.5563 12.9125 21.04 12.9125H24.7313C25.215 12.9125 25.6063 13.3038 25.6063 13.7875V17.4788C25.6063 17.9625 25.215 18.3538 24.7313 18.3538ZM21.915 16.6038H23.8563V14.6625H21.915V16.6038Z" fill="#101624"/>
<path d="M33.515 18.3538H29.8237C29.34 18.3538 28.9487 17.9625 28.9487 17.4788V13.7875C28.9487 13.3038 29.34 12.9125 29.8237 12.9125H33.515C33.9987 12.9125 34.39 13.3038 34.39 13.7875V17.4788C34.39 17.9625 33.9987 18.3538 33.515 18.3538ZM30.6987 16.6038H32.64V14.6625H30.6987V16.6038Z" fill="#101624"/>
<path d="M42.2975 18.3538H38.6062C38.1225 18.3538 37.7312 17.9625 37.7312 17.4788V13.7875C37.7312 13.3038 38.1225 12.9125 38.6062 12.9125H42.2975C42.7812 12.9125 43.1725 13.3038 43.1725 13.7875V17.4788C43.1725 17.9625 42.7812 18.3538 42.2975 18.3538ZM39.4812 16.6038H41.4225V14.6625H39.4812V16.6038Z" fill="#101624"/>
<path d="M51.66 18.3538H47.9688C47.485 18.3538 47.0938 17.9625 47.0938 17.4788V13.7875C47.0938 13.3038 47.485 12.9125 47.9688 12.9125H51.66C52.1437 12.9125 52.535 13.3038 52.535 13.7875V17.4788C52.535 17.9625 52.1425 18.3538 51.66 18.3538ZM48.8438 16.6038H50.785V14.6625H48.8438V16.6038Z" fill="#101624"/>
<path d="M33.5138 26.0588H32.1463C31.6626 26.0588 31.2713 25.6675 31.2713 25.1838C31.2713 24.7 31.6626 24.3088 32.1463 24.3088H32.6388V22.3663H32.05C31.5663 22.3663 31.175 21.975 31.175 21.4913C31.175 21.0075 31.5663 20.6163 32.05 20.6163H33.5138C33.9975 20.6163 34.3888 21.0075 34.3888 21.4913V25.1838C34.3888 25.6675 33.9975 26.0588 33.5138 26.0588Z" fill="#101624"/>
<path d="M42.2975 26.0587H38.6062C38.1225 26.0587 37.7312 25.6675 37.7312 25.1837V21.4925C37.7312 21.0087 38.1225 20.6175 38.6062 20.6175H42.2975C42.7812 20.6175 43.1725 21.0087 43.1725 21.4925V25.1837C43.1725 25.6662 42.7812 26.0587 42.2975 26.0587ZM39.4812 24.3087H41.4225V22.3675H39.4812V24.3087Z" fill="#101624"/>
<path d="M51.66 26.0587H47.9688C47.485 26.0587 47.0938 25.6675 47.0938 25.1837V21.4925C47.0938 21.0087 47.485 20.6175 47.9688 20.6175H51.66C52.1437 20.6175 52.535 21.0087 52.535 21.4925V25.1837C52.535 25.6662 52.1425 26.0587 51.66 26.0587ZM48.8438 24.3087H50.785V22.3675H48.8438V24.3087Z" fill="#101624"/>
<path d="M51.66 33.7625H47.9688C47.485 33.7625 47.0938 33.3712 47.0938 32.8875V29.1962C47.0938 28.7125 47.485 28.3212 47.9688 28.3212H51.66C52.1437 28.3212 52.535 28.7125 52.535 29.1962V32.8875C52.535 33.3712 52.1425 33.7625 51.66 33.7625ZM48.8438 32.0125H50.785V30.0712H48.8438V32.0125Z" fill="#101624"/>
<path d="M51.66 41.4675H47.9688C47.485 41.4675 47.0938 41.0762 47.0938 40.5925V36.9012C47.0938 36.4175 47.485 36.0262 47.9688 36.0262H51.66C52.1437 36.0262 52.535 36.4175 52.535 36.9012V40.5925C52.535 41.0762 52.1425 41.4675 51.66 41.4675ZM48.8438 39.7175H50.785V37.7762H48.8438V39.7175Z" fill="#101624"/>
<path d="M51.66 49.1725H47.9688C47.485 49.1725 47.0938 48.7813 47.0938 48.2975V44.6063C47.0938 44.1225 47.485 43.7313 47.9688 43.7313H51.66C52.1437 43.7313 52.535 44.1225 52.535 44.6063V48.2975C52.535 48.78 52.1425 49.1725 51.66 49.1725ZM48.8438 47.4225H50.785V45.4813H48.8438V47.4225Z" fill="#101624"/>
<path d="M51.66 56.8763H47.9688C47.485 56.8763 47.0938 56.4851 47.0938 56.0013V52.3101C47.0938 51.8263 47.485 51.4351 47.9688 51.4351H51.66C52.1437 51.4351 52.535 51.8263 52.535 52.3101V56.0013C52.535 56.4851 52.1425 56.8763 51.66 56.8763ZM48.8438 55.1263H50.785V53.1851H48.8438V55.1263Z" fill="#101624"/>
<path d="M44.3488 62.3125H29.1038C28.62 62.3125 28.2288 61.9212 28.2288 61.4375V31.6875C28.2288 31.2038 28.62 30.8125 29.1038 30.8125H44.3475C44.8313 30.8125 45.2225 31.2038 45.2225 31.6875C45.2225 32.1712 44.8313 32.5625 44.3475 32.5625H29.9788V60.5625H43.4725V35.4012C43.4725 34.9175 43.8638 34.5262 44.3475 34.5262C44.8313 34.5262 45.2225 34.9175 45.2225 35.4012V61.4375C45.2238 61.9212 44.8313 62.3125 44.3488 62.3125Z" fill="#1D57A5"/>
<path d="M29.1037 62.3125H8.33374C7.84999 62.3125 7.45874 61.9213 7.45874 61.4375V21.4913C7.45874 21.0075 7.84999 20.6163 8.33374 20.6163H29.1037C29.5875 20.6163 29.9787 21.0075 29.9787 21.4913V61.4375C29.9787 61.9213 29.5875 62.3125 29.1037 62.3125ZM9.20874 60.5625H28.2287V22.3663H9.20874V60.5625Z" fill="#101624"/>
</svg>
