<svg width="163" height="87" viewBox="0 0 163 87" fill="none" xmlns="http://www.w3.org/2000/svg">
<path d="M30.5327 35.3442L22.556 21.7509C21.8147 20.4877 21.8147 18.9392 22.556 17.6759L30.5327 4.08265C31.3524 2.68572 32.9351 1.87849 34.5867 2.01493L53.2975 3.56064C54.7152 3.67776 55.9784 4.47511 56.6626 5.68477L63.4765 17.7324C64.1745 18.9664 64.1745 20.4605 63.4765 21.6945L56.6626 33.7421C55.9784 34.9517 54.7152 35.7491 53.2975 35.8662L34.5867 37.4119C32.9351 37.5483 31.3524 36.7411 30.5327 35.3442Z" stroke="#1D57A5" stroke-width="4"/>
<path d="M30.5327 82.9174L22.556 69.3241C21.8147 68.0608 21.8147 66.5124 22.556 65.2491L30.5327 51.6558C31.3524 50.2589 32.9351 49.4517 34.5867 49.5881L53.2975 51.1338C54.7152 51.2509 55.9784 52.0483 56.6626 53.258L63.4765 65.3055C64.1745 66.5396 64.1745 68.0336 63.4765 69.2677L56.6626 81.3152C55.9784 82.5249 54.7152 83.3223 53.2975 83.4394L34.5867 84.9851C32.9351 85.1215 31.3524 84.3143 30.5327 82.9174Z" stroke="#FFD037" stroke-width="4"/>
<path d="M10.5327 58.9174L2.55596 45.3241C1.81468 44.0608 1.81468 42.5124 2.55596 41.2491L10.5327 27.6558C11.3524 26.2589 12.9351 25.4517 14.5867 25.5881L33.2975 27.1338C34.7152 27.2509 35.9784 28.0483 36.6626 29.258L43.4765 41.3055C44.1745 42.5396 44.1745 44.0336 43.4765 45.2677L36.6626 57.3152C35.9784 58.5249 34.7152 59.3223 33.2975 59.4394L14.5867 60.9851C12.9351 61.1215 11.3524 60.3143 10.5327 58.9174Z" stroke="#EF433E" stroke-width="4"/>
<path d="M23 22.5L28 31" stroke="#1D57A5" stroke-width="4"/>
<path d="M53.2975 51.1338C54.7152 51.2509 55.9784 52.0483 56.6626 53.258L63.4765 65.3055C64.1745 66.5396 64.1745 68.0336 63.4765 69.2677L56.6626 81.3152C55.9784 82.5249 54.7152 83.3223 53.2975 83.4394L34.5867 84.9851C32.9351 85.1215 31.3524 84.3143 30.5327 82.9174L22.556 69.3241C21.8147 68.0608 21.8147 66.5124 22.556 65.2491L30.5327 51.6558" stroke="#FFD037" stroke-width="4"/>
<path d="M117.113 63.4914C117.117 64.047 116.668 64.5 116.113 64.5H87.0085C83.9259 64.5 81.1152 64.0702 78.5766 63.2107C76.0742 62.3154 73.9164 61.0441 72.1031 59.3967C70.3261 57.7135 68.948 55.6722 67.9688 53.2727C66.9896 50.8375 66.5 48.0799 66.5 45C66.5 42.0992 67.0077 39.4669 68.0232 37.1033C69.0749 34.7039 70.5255 32.6446 72.3751 30.9256C74.2247 29.2066 76.4006 27.8815 78.903 26.9504C81.4416 25.9835 84.1797 25.5 87.1173 25.5C90.0548 25.5 92.7748 25.9835 95.2771 26.9504C97.7795 27.8815 99.9373 29.2066 101.751 30.9256C103.6 32.6446 105.033 34.7039 106.048 37.1033C107.064 39.4669 107.571 42.0992 107.571 45C107.571 46.719 107.372 48.2948 106.973 49.7273C106.574 51.1598 106.048 52.4669 105.395 53.6488C104.779 54.7948 104.054 55.8154 103.219 56.7107C102.431 57.5603 101.607 58.2875 100.747 58.8921C100.728 58.9054 100.717 58.927 100.717 58.95C100.717 58.989 100.749 59.0207 100.788 59.0207H116.083C116.632 59.0207 117.078 59.4632 117.083 60.0121L117.113 63.4914ZM87.1173 31.5702C85.2677 31.5702 83.5269 31.9105 81.895 32.5909C80.2992 33.2713 78.9211 34.2025 77.7606 35.3843C76.6001 36.5661 75.6753 37.9807 74.9863 39.6281C74.3335 41.2755 74.0071 43.0661 74.0071 45C74.0071 47.0413 74.3153 48.9036 74.9319 50.5868C75.5847 52.2342 76.4732 53.6488 77.5974 54.8306C78.7579 56.0124 80.136 56.9435 81.7318 57.624C83.3275 58.2686 85.0864 58.5909 87.0085 58.5909C88.8943 58.5909 90.6351 58.2686 92.2308 57.624C93.8628 56.9435 95.259 56.0124 96.4195 54.8306C97.58 53.6488 98.4867 52.2342 99.1395 50.5868C99.7923 48.9036 100.119 47.0413 100.119 45C100.119 43.0661 99.8104 41.2755 99.1939 39.6281C98.5774 37.9807 97.6888 36.5661 96.5283 35.3843C95.4041 34.2025 94.0441 33.2713 92.4484 32.5909C90.8527 31.9105 89.0756 31.5702 87.1173 31.5702Z" fill="white"/>
<path d="M115.643 33.376C115.643 32.8237 115.195 32.376 114.643 32.376H104.838C104.286 32.376 103.838 31.9283 103.838 31.376V27.4669C103.838 26.9147 104.286 26.4669 104.838 26.4669H133.302C133.854 26.4669 134.302 26.9147 134.302 27.4669V31.376C134.302 31.9283 133.854 32.376 133.302 32.376H123.497C122.945 32.376 122.497 32.8237 122.497 33.376V63.5C122.497 64.0523 122.049 64.5 121.497 64.5H116.643C116.091 64.5 115.643 64.0523 115.643 63.5V33.376Z" fill="white"/>
<path d="M140.103 44.7507C140.324 44.4136 140.321 43.9767 140.096 43.6425L129.553 28.0265C129.105 27.3623 129.581 26.4669 130.382 26.4669H136.208C136.557 26.4669 136.88 26.6483 137.062 26.9456L143.852 38.0605C144.244 38.701 145.175 38.6982 145.562 38.0553L152.253 26.9508C152.434 26.6505 152.759 26.4669 153.11 26.4669H158.58C159.375 26.4669 159.852 27.351 159.415 28.016L149.051 43.7943C148.828 44.1337 148.833 44.5741 149.062 44.9089L161.426 62.9344C161.881 63.5979 161.406 64.5 160.601 64.5H154.402C154.059 64.5 153.739 64.3237 153.556 64.0331L145.303 50.9365C144.907 50.3072 143.986 50.3157 143.601 50.9522L135.701 64.0174C135.52 64.317 135.195 64.5 134.845 64.5H128.993C128.198 64.5 127.721 63.6163 128.157 62.9513L140.103 44.7507Z" fill="white"/>
</svg>
