<svg width="64" height="64" viewBox="0 0 64 64" fill="none" xmlns="http://www.w3.org/2000/svg">
<path d="M15.1375 50.6675C14.6537 50.6675 14.2625 50.2763 14.2625 49.7925C14.2625 46.8075 11.835 44.38 8.85 44.38C5.865 44.38 3.4375 46.8075 3.4375 49.7925C3.4375 50.2763 3.04625 50.6675 2.5625 50.6675C2.07875 50.6675 1.6875 50.2763 1.6875 49.7925V14.2075C1.6875 10.2575 4.9 7.04501 8.85 7.04501C12.8 7.04501 16.0125 10.2575 16.0125 14.2075V49.7925C16.0125 50.2763 15.6213 50.6675 15.1375 50.6675ZM8.85 42.63C11.0088 42.63 12.9487 43.59 14.2625 45.1063V14.2075C14.2625 11.2225 11.835 8.79501 8.85 8.79501C5.865 8.79501 3.4375 11.2225 3.4375 14.2075V45.1063C4.75125 43.59 6.69125 42.63 8.85 42.63Z" fill="#101624"/>
<path d="M61.4375 56.955C60.9538 56.955 60.5625 56.5638 60.5625 56.08V15.0825H16.0125V49.7925C16.0125 50.2763 15.6213 50.6675 15.1375 50.6675C14.6537 50.6675 14.2625 50.2763 14.2625 49.7925C14.2625 46.8075 11.835 44.38 8.85 44.38C5.865 44.38 3.4375 46.8075 3.4375 49.7925C3.4375 52.7775 5.865 55.205 8.85 55.205H56.4338C56.9175 55.205 57.3088 55.5963 57.3088 56.08C57.3088 56.5638 56.9175 56.955 56.4338 56.955H8.85C4.90125 56.955 1.6875 53.7425 1.6875 49.7925C1.6875 45.8425 4.90125 42.63 8.85 42.63C11.0088 42.63 12.9487 43.59 14.2625 45.1063V14.2075C14.2625 13.7238 14.6537 13.3325 15.1375 13.3325H61.4375C61.9212 13.3325 62.3125 13.7238 62.3125 14.2075V56.08C62.3125 56.5638 61.9212 56.955 61.4375 56.955Z" fill="#101624"/>
<path d="M28.4124 29.46H19.8586C19.3749 29.46 18.9836 29.0687 18.9836 28.585V20.0312C18.9836 19.5475 19.3749 19.1562 19.8586 19.1562H28.4124C28.8961 19.1562 29.2874 19.5475 29.2874 20.0312V28.585C29.2874 29.0687 28.8949 29.46 28.4124 29.46ZM20.7336 27.71H27.5374V20.9062H20.7336V27.71Z" fill="#101624"/>
<path d="M54.5825 29.46H32C31.5163 29.46 31.125 29.0687 31.125 28.585V20.0312C31.125 19.5475 31.5163 19.1562 32 19.1562H43.05C43.5337 19.1562 43.925 19.5475 43.925 20.0312C43.925 20.515 43.5337 20.9062 43.05 20.9062H32.875V27.71H53.7075V20.9062H49.6675C49.1838 20.9062 48.7925 20.515 48.7925 20.0312C48.7925 19.5475 49.1838 19.1562 49.6675 19.1562H54.5825C55.0662 19.1562 55.4575 19.5475 55.4575 20.0312V28.585C55.4575 29.0687 55.0662 29.46 54.5825 29.46Z" fill="#1D57A5"/>
<path d="M46.1575 20.9075C46.1 20.9075 46.0425 20.9012 45.9863 20.89C45.93 20.8787 45.875 20.8625 45.8225 20.84C45.77 20.8187 45.7187 20.7912 45.6712 20.76C45.6237 20.7275 45.5787 20.6912 45.5387 20.6512C45.4975 20.61 45.4613 20.5662 45.43 20.5175C45.3975 20.47 45.3713 20.42 45.3488 20.3675C45.3275 20.3137 45.31 20.2587 45.2988 20.2037C45.2875 20.1462 45.2812 20.0887 45.2812 20.0325C45.2812 19.975 45.2875 19.9175 45.2988 19.8612C45.31 19.805 45.3275 19.75 45.3488 19.6975C45.3713 19.645 45.3975 19.5937 45.43 19.5462C45.4613 19.4987 45.4975 19.4537 45.5387 19.4137C45.5787 19.3737 45.6237 19.3362 45.6712 19.305C45.7187 19.2737 45.77 19.2462 45.8225 19.2237C45.875 19.2025 45.93 19.1862 45.9863 19.175C46.0988 19.1512 46.215 19.1512 46.3275 19.175C46.3837 19.1862 46.4387 19.2025 46.4912 19.2237C46.5437 19.2462 46.595 19.2737 46.6425 19.305C46.69 19.3362 46.735 19.3737 46.775 19.4137C46.8163 19.4537 46.8525 19.4987 46.885 19.5462C46.9162 19.5937 46.9425 19.645 46.965 19.6975C46.9863 19.75 47.0037 19.805 47.015 19.8612C47.0262 19.9175 47.0312 19.975 47.0312 20.0325C47.0312 20.0887 47.0262 20.1462 47.015 20.2037C47.0037 20.2587 46.9863 20.3137 46.965 20.3675C46.9425 20.42 46.9162 20.47 46.885 20.5175C46.8525 20.5662 46.8163 20.61 46.775 20.6512C46.735 20.6912 46.69 20.7275 46.6425 20.76C46.595 20.7912 46.5437 20.8187 46.4912 20.84C46.4387 20.8625 46.3837 20.8787 46.3275 20.89C46.2712 20.9012 46.2138 20.9075 46.1575 20.9075Z" fill="#1D57A5"/>
<path d="M46.0287 51.13H41.2412C40.7575 51.13 40.3662 50.7387 40.3662 50.255V33.8837C40.3662 33.4 40.7575 33.0087 41.2412 33.0087H46.0287C46.5125 33.0087 46.9037 33.4 46.9037 33.8837V50.2562C46.9037 50.7387 46.5125 51.13 46.0287 51.13ZM42.1175 49.38H45.155V34.7587H42.1175V49.38Z" fill="#101624"/>
<path d="M54.5824 51.13H49.7949C49.3112 51.13 48.9199 50.7387 48.9199 50.255V33.8837C48.9199 33.4 49.3112 33.0087 49.7949 33.0087H54.5824C55.0662 33.0087 55.4574 33.4 55.4574 33.8837V50.2562C55.4574 50.7387 55.0662 51.13 54.5824 51.13ZM50.6699 49.38H53.7074V34.7587H50.6699V49.38Z" fill="#101624"/>
<path d="M8.47632 39.3587C7.99257 39.3587 7.60132 38.9675 7.60132 38.4837V15.165C7.60132 14.6812 7.99257 14.29 8.47632 14.29C8.96007 14.29 9.35131 14.6812 9.35131 15.165V38.4837C9.35131 38.9675 8.95882 39.3587 8.47632 39.3587Z" fill="#101624"/>
<path d="M8.47632 13.28C8.24507 13.28 8.02007 13.1863 7.85757 13.0238C7.69507 12.86 7.60132 12.635 7.60132 12.405C7.60132 12.1738 7.69507 11.9488 7.85757 11.7863C8.06007 11.5825 8.36257 11.49 8.64757 11.5463C8.70257 11.5575 8.75757 11.575 8.81132 11.5963C8.86382 11.6188 8.91382 11.645 8.96132 11.6775C9.01007 11.7088 9.05507 11.745 9.09507 11.7863C9.25757 11.9488 9.35131 12.1738 9.35131 12.405C9.35131 12.635 9.25757 12.86 9.09507 13.0238C9.05507 13.0638 9.01007 13.1 8.96132 13.1325C8.91382 13.1638 8.86382 13.1913 8.81132 13.2125C8.75757 13.235 8.70257 13.2513 8.64757 13.2625C8.59132 13.2738 8.53382 13.28 8.47632 13.28Z" fill="#101624"/>
<path fill-rule="evenodd" clip-rule="evenodd" d="M26.4999 35.0843L20.8876 38.3606L21.5337 46.1403L26.4999 48.9346L31.4661 46.1403L32.1121 38.3606L26.4999 35.0843ZM27.2561 33.4415L33.183 36.9015C33.6821 37.1928 33.9694 37.7451 33.9216 38.321L33.2468 46.4478C33.2056 46.9437 32.9212 47.3869 32.4875 47.6309L27.2354 50.5861C26.7787 50.8431 26.221 50.8431 25.7643 50.5861L20.5123 47.6309C20.0786 47.3869 19.7942 46.9437 19.753 46.4478L19.0782 38.321C19.0303 37.7451 19.3177 37.1928 19.8168 36.9015L25.7436 33.4415C26.2109 33.1687 26.7889 33.1687 27.2561 33.4415Z" fill="#1D57A5"/>
</svg>
