<svg width="64" height="64" viewBox="0 0 64 64" fill="none" xmlns="http://www.w3.org/2000/svg">
<path d="M32.4573 53.5325C31.9735 53.5325 31.5823 53.1412 31.5823 52.6575C31.5823 52.1737 31.9735 51.7825 32.4573 51.7825C35.9135 51.7825 39.1623 50.4362 41.6073 47.9912L48.5873 41.0112C49.9773 39.6212 49.9773 37.36 48.5873 35.97L46.3385 33.7212C45.9973 33.38 45.9973 32.825 46.3385 32.4837C46.6798 32.1425 47.2348 32.1425 47.576 32.4837L49.8248 34.7325C51.8973 36.805 51.8973 40.1762 49.8248 42.2487L42.8448 49.2287C40.0685 52.0037 36.3798 53.5325 32.4573 53.5325Z" fill="#101624"/>
<path d="M44.845 31.865C44.615 31.865 44.3887 31.7712 44.2262 31.6087C44.1862 31.5687 44.1487 31.5237 44.1175 31.4762C44.0862 31.4287 44.0587 31.3775 44.0375 31.325C44.015 31.2725 43.9987 31.2175 43.9875 31.1612C43.9762 31.105 43.97 31.0475 43.97 30.99C43.97 30.9325 43.9762 30.875 43.9875 30.8187C43.9987 30.7637 44.015 30.7087 44.0375 30.655C44.0587 30.6025 44.0862 30.5512 44.1175 30.5037C44.1487 30.4562 44.1862 30.4112 44.2262 30.3712C44.43 30.1687 44.7312 30.075 45.0162 30.1325C45.0712 30.1437 45.1275 30.16 45.18 30.1825C45.2325 30.2037 45.2837 30.2312 45.3312 30.2625C45.3787 30.295 45.4237 30.3312 45.4637 30.3712C45.5037 30.4112 45.54 30.4562 45.5725 30.5037C45.6037 30.5512 45.6312 30.6025 45.6525 30.655C45.675 30.7087 45.6912 30.7637 45.7025 30.8187C45.7137 30.875 45.72 30.9325 45.72 30.99C45.72 31.0475 45.7137 31.105 45.7025 31.1612C45.6912 31.2175 45.675 31.2725 45.6525 31.325C45.6312 31.3775 45.6037 31.4287 45.5725 31.4762C45.54 31.5237 45.5037 31.5687 45.4637 31.6087C45.4237 31.6487 45.3787 31.6862 45.3312 31.7175C45.2837 31.7487 45.2325 31.7762 45.18 31.7975C45.1275 31.82 45.0712 31.8362 45.0162 31.8475C44.96 31.8587 44.9025 31.865 44.845 31.865Z" fill="#101624"/>
<path d="M29.4174 56.57C29.1937 56.57 28.9699 56.485 28.7987 56.3138L19.1949 46.71C18.8537 46.3687 18.8537 45.8137 19.1949 45.4725L22.5087 42.1587V35.8137C22.5087 35.1312 22.7749 34.49 23.2574 34.0075L28.8824 28.3825C29.3649 27.9 30.0062 27.6337 30.6887 27.6337H33.1437L34.1774 26.6C34.2637 26.5137 34.3437 26.4387 34.4237 26.37C36.5212 24.5187 39.7124 24.62 41.6937 26.6L43.5599 28.4662C43.9012 28.8075 43.9012 29.3625 43.5599 29.7037C43.2187 30.045 42.6637 30.045 42.3224 29.7037L40.4562 27.8375C39.1274 26.5087 36.9837 26.4412 35.5774 27.6862C35.5737 27.69 35.5699 27.6925 35.5662 27.6962C35.5199 27.735 35.4687 27.7837 35.4137 27.8387L34.1237 29.1287C33.9599 29.2925 33.7374 29.385 33.5049 29.385H30.6887C30.4737 29.385 30.2724 29.4687 30.1199 29.6212L24.4949 35.2462C24.3424 35.3987 24.2587 35.6 24.2587 35.815V42.5212C24.2587 42.7537 24.1662 42.9762 24.0024 43.14L21.0512 46.0912L30.0362 55.0762C30.3774 55.4175 30.3774 55.9725 30.0362 56.3138C29.8662 56.485 29.6424 56.57 29.4174 56.57Z" fill="#101624"/>
<path d="M27.4512 62.315C27.2274 62.315 27.0037 62.23 26.8324 62.0588L13.1737 48.4013C12.8324 48.06 12.8324 47.505 13.1737 47.1638L17.0299 43.3075C17.3712 42.9663 17.9262 42.9663 18.2674 43.3075L31.9262 56.9663C32.2674 57.3075 32.2674 57.8625 31.9262 58.2038L28.0699 62.06C27.8987 62.23 27.6749 62.315 27.4512 62.315ZM15.0299 47.7825L27.4512 60.2038L30.0699 57.585L17.6487 45.1638L15.0299 47.7825Z" fill="#1D57A5"/>
<path d="M15.4148 18.6625C15.1848 18.6625 14.9585 18.5688 14.796 18.4063C14.6335 18.2438 14.5398 18.0188 14.5398 17.7875C14.5398 17.5575 14.6335 17.3313 14.796 17.1688C14.9585 17.0063 15.1848 16.9125 15.4148 16.9125C15.646 16.9125 15.8711 17.0063 16.0336 17.1688C16.1961 17.3313 16.2898 17.5575 16.2898 17.7875C16.2898 18.0175 16.1961 18.2438 16.0336 18.4063C15.8711 18.5688 15.646 18.6625 15.4148 18.6625Z" fill="#1D57A5"/>
<path d="M21.9987 30.8537C21.775 30.8537 21.5512 30.7687 21.38 30.5975L18.6612 27.8787C18.32 27.5375 18.32 26.9825 18.6612 26.6412L29.1487 16.1537C29.49 15.8125 30.045 15.8125 30.3862 16.1537L33.1049 18.8725C33.4462 19.2137 33.4462 19.7687 33.1049 20.11L22.6175 30.5975C22.4462 30.7687 22.2225 30.8537 21.9987 30.8537ZM20.5162 27.26L21.9975 28.7412L31.2474 19.4912L29.7662 18.01L20.5162 27.26Z" fill="#101624"/>
<path d="M27.7162 31.6613C27.5012 31.6613 27.2862 31.5826 27.1187 31.4251L23.75 28.2688C23.5775 28.1063 23.4775 27.8813 23.4737 27.6451C23.47 27.4076 23.5625 27.1801 23.73 27.0126L29.52 21.2226C29.8612 20.8813 30.4162 20.8813 30.7575 21.2226C31.0987 21.5638 31.0987 22.1188 30.7575 22.4601L25.6062 27.6113L27.6975 29.5701L28.8837 28.3838C29.3662 27.9013 30.0075 27.6351 30.69 27.6351H33.145L33.7762 27.0038L31.51 24.5838C31.18 24.2313 31.1975 23.6776 31.55 23.3476C31.9025 23.0176 32.4562 23.0351 32.7862 23.3876L35.6375 26.4326C35.8012 26.6076 35.8862 26.8401 35.8725 27.0788C35.8587 27.3176 35.7487 27.5401 35.5675 27.6951C35.5212 27.7338 35.47 27.7826 35.415 27.8376L34.125 29.1276C33.9612 29.2913 33.7387 29.3838 33.5062 29.3838H30.69C30.475 29.3838 30.2737 29.4676 30.1212 29.6201L28.3362 31.4051C28.1637 31.5763 27.94 31.6613 27.7162 31.6613Z" fill="#101624"/>
<path d="M50.9075 53.3763C50.6925 53.3763 50.4775 53.2976 50.31 53.1401L46.3125 49.3963C45.96 49.0663 45.9412 48.5126 46.2725 48.1601C46.6025 47.8076 47.1562 47.7888 47.5087 48.1201L50.8887 51.2851L53.7925 48.3826L48.9087 43.1663L45.0337 47.0413C44.6925 47.3826 44.1375 47.3826 43.7962 47.0413C43.455 46.7001 43.455 46.1451 43.7962 45.8038L48.31 41.2901C48.4775 41.1226 48.705 41.0313 48.9425 41.0338C49.18 41.0376 49.405 41.1376 49.5662 41.3101L55.6462 47.8051C55.9687 48.1501 55.96 48.6876 55.6262 49.0213L51.525 53.1213C51.3562 53.2913 51.1325 53.3763 50.9075 53.3763Z" fill="#101624"/>
<path d="M11.7686 35.645C11.5361 35.645 11.3136 35.5525 11.1486 35.3875L11.1211 35.36C7.1186 31.3575 7.1186 24.845 11.1224 20.8425L12.8386 19.1263C13.1799 18.785 13.7349 18.785 14.0761 19.1263C14.4174 19.4675 14.4174 20.0225 14.0761 20.3638L12.3599 22.08C9.2386 25.2013 9.0511 30.1613 11.7974 33.5038L31.3124 13.9888L25.8811 8.5575L18.1174 16.3213C17.7761 16.6625 17.2211 16.6625 16.8799 16.3213C16.5386 15.98 16.5386 15.425 16.8799 15.0838L25.2624 6.70125C25.6036 6.36 26.1586 6.36 26.4999 6.70125L33.1686 13.37C33.3324 13.5338 33.4249 13.7563 33.4249 13.9888C33.4249 14.2213 33.3324 14.4438 33.1686 14.6075L12.3874 35.3888C12.2236 35.5525 12.0011 35.645 11.7686 35.645Z" fill="#1D57A5"/>
<path d="M35.5287 17.8412C35.2962 17.8412 35.0737 17.7487 34.9099 17.585L22.6524 5.3275C22.3112 4.98625 22.3112 4.43125 22.6524 4.09L23.7737 2.96875C25.4837 1.25875 28.2662 1.25875 29.9762 2.96875L37.2687 10.2612C38.0974 11.09 38.5537 12.1912 38.5537 13.3625C38.5537 14.5337 38.0974 15.635 37.2687 16.4637L36.1474 17.585C35.9837 17.7487 35.7612 17.8412 35.5287 17.8412ZM24.5087 4.70875L35.5287 15.7287L36.0312 15.2262C36.5287 14.7287 36.8037 14.0662 36.8037 13.3625C36.8037 12.6587 36.5299 11.9962 36.0312 11.4987L28.7387 4.20625C27.7112 3.17875 26.0387 3.17875 25.0112 4.20625L24.5087 4.70875Z" fill="#1D57A5"/>
</svg>
